{"title":"Rise.of.the.Guardians.2012.BRRip.XviD.Ac3.Feel-Free","uid":8195096,"size":1371829589,"categoryP":"video","categoryS":"movies","magnet":"?xt=urn:btih:ee1af61f4340b97462569076a0bdda39120b6af4&amp;dn=Rise.of.the.Guardians.2012.BRRip.XviD.Ac3.Feel-Free&amp;tr=udp%3A%2F%2Ftracker.openbittorrent.com%3A80&amp;tr=udp%3A%2F%2Fopen.demonii.com%3A1337&amp;tr=udp%3A%2F%2Ftracker.coppersurfer.tk%3A6969&amp;tr=udp%3A%2F%2Fexodus.desync.com%3A6969","seeders":1,"leechers":0,"uploader":"Gh0stNet","files":3,"time":1361898917,"description":"Genre: Animation | Adventure | Family\nLanguage:English\nIMDb:http://www.imdb.com/title/tt1446192/\nSource:1080p.BluRay.x264-SPARKS Thanks\nEncoder:Tony\n\nFormat                                   : AVI\nFormat/Info                              : Audio Video Interleave\nFile size                                : 1.28 GiB\nDuration                                 : 1h 37mn\nOverall bit rate                         : 1 882 Kbps\n\nVideo\nID                                       : 0\nFormat                                   : MPEG-4 Visual\nFormat profile                           : Advanced Simple@L5\nFormat settings, BVOP                    : 1\nFormat settings, QPel                    : No\nFormat settings, GMC                     : No warppoints\nFormat settings, Matrix                  : Default (H.263)\nCodec ID                                 : XVID\nCodec ID/Hint                            : XviD\nDuration                                 : 1h 37mn\nBit rate                                 : 1 489 Kbps\nWidth                                    : 640 pixels\nHeight                                   : 360 pixels\nDisplay aspect ratio                     : 16:9\nFrame rate                               : 23.976 fps\nColor space                              : YUV\nChroma subsampling                       : 4:2:0\nBit depth                                : 8 bits\nScan type                                : Progressive\nCompression mode                         : Lossy\nBits/(Pixel*Frame)                       : 0.269\nStream size                              : 1.01 GiB (79%)\nWriting library                          : XviD 1.2.1 (UTC 2008-12-04)\n\nAudio\nID                                       : 1\nFormat                                   : AC-3\nFormat/Info                              : Audio Coding 3\nMode extension                           : CM (complete main)\nCodec ID                                 : 2000\nDuration                                 : 1h 37mn\nBit rate mode                            : Constant\nBit rate                                 : 384 Kbps\nChannel(s)                               : 6 channels\nChannel positions                        : Front: L C R, Side: L R, LFE\nSampling rate                            : 48.0 KHz\nBit depth                                : 16 bits\nCompression mode                         : Lossy\nStream size                              : 267 MiB (20%)\nAlignment                                : Aligned on interleaves\nInterleave, duration                     : 42 ms (1.00 video frame)\nInterleave, preload duration             : 512 ms\n\nScreens: &lt;a href=&quot;\nhttp://i.imgur.com/sYpNWzf.png&quot; rel=&quot;nofollow&quot; target=&quot;_NEW&quot;&gt;\nhttp://i.imgur.com/sYpNWzf.png&lt;/a&gt; &lt;a href=&quot;\nhttp://i.imgur.com/DAyaVss.png&quot; rel=&quot;nofollow&quot; target=&quot;_NEW&quot;&gt;\nhttp://i.imgur.com/DAyaVss.png&lt;/a&gt;\n\n\nPlot:\nWhen the evil spirit Pitch launches an assault on Earth, the Immortal Guardians team up to protect the innocence of children all around the world.\n\n\nGreets:\nCRYS,MiNiSTRY,INSPiRAL,IMAGINE,LKRG,ADTRG,FXG,3Li,FLAWL3SS,CrEwSaDe,TA,iLLUSiON,EMBER,HOPE,GooN,BBnRG,NOGRP,ETRG,BHRG,iLLUMiNATi,MiSTERE.ViSiON,DTRG SAFCuk009,LU,TheFalcon007,MYSTiC,PrisM,Noir,WBZ,LAP,Rx,Kingdom,SAFCuk009+Fabreezy,HDLiTE,TWiZTED,ETRG.ELEKTRI4KA,MAGNAT,CM8\n               And to all the other p2p grps past and present\n","torrent":{"xt":"urn:btih:ee1af61f4340b97462569076a0bdda39120b6af4","amp;dn":"Rise.of.the.Guardians.2012.BRRip.XviD.Ac3.Feel-Free","amp;tr":["udp%3A%2F%2Ftracker.openbittorrent.com%3A80","udp%3A%2F%2Fopen.demonii.com%3A1337","udp%3A%2F%2Ftracker.coppersurfer.tk%3A6969","udp%3A%2F%2Fexodus.desync.com%3A6969"],"infoHash":"ee1af61f4340b97462569076a0bdda39120b6af4","infoHashBuffer":{"type":"Buffer","data":[238,26,246,31,67,64,185,116,98,86,144,118,160,189,218,57,18,11,106,244]},"announce":[],"urlList":[]}}